<?xml version="1.0" encoding="utf-8"?>
<!-- Generator: Adobe Illustrator 25.3.0, SVG Export Plug-In . SVG Version: 6.00 Build 0)  -->
<svg version="1.1" id="Calque_1" xmlns="http://www.w3.org/2000/svg" xmlns:xlink="http://www.w3.org/1999/xlink" x="0px" y="0px"
	 viewBox="0 0 595.28 241.04" style="enable-background:new 0 0 595.28 241.04;" xml:space="preserve">
<style type="text/css">
	.st0{clip-path:url(#SVGID_2_);fill:url(#SVGID_3_);}
	.st1{clip-path:url(#SVGID_5_);fill:url(#SVGID_6_);}
	.st2{clip-path:url(#SVGID_8_);fill:url(#SVGID_9_);}
	.st3{clip-path:url(#SVGID_11_);fill:url(#SVGID_12_);}
	.st4{clip-path:url(#SVGID_14_);fill:url(#SVGID_15_);}
	.st5{clip-path:url(#SVGID_17_);fill:url(#SVGID_18_);}
	.st6{fill:#523996;}
	.st7{fill:#F01067;}
</style>
<g>
	<g>
		<g>
			<defs>
				<path id="SVGID_1_" d="M34.19,87.92C34,88.28,33.81,88.64,33.62,89C33.81,88.64,34,88.28,34.19,87.92 M32.06,86.78
					c-1.62,3.02-3.06,6.09-4.3,9.13c-2.33,5.74-4.1,11.74-5.27,17.83c-1.16,6.09-1.75,12.44-1.75,18.88
					c0,12.9,2.36,25.26,7.02,36.72c4.66,11.49,11.35,21.63,19.88,30.16c4.26,4.27,9.02,8.14,14.14,11.5
					c5.11,3.36,10.71,6.31,16.67,8.77c5.96,2.47,12.33,4.34,18.94,5.57c6.59,1.23,13.59,1.85,20.82,1.85
					c11.39,0,22.32-1.36,32.47-4.03c10.31-2.71,19.04-7.04,25.96-12.86l0.86-0.72v-1.12v-33.18v-6.6l-4.26,5.04
					c-1.87,2.21-4.29,4.71-7.18,7.44c-2.81,2.65-6.4,5.13-10.67,7.39c-4.29,2.27-9.39,4.2-15.15,5.72
					c-5.74,1.52-12.53,2.29-20.18,2.29c-3.83,0-23.92-0.61-43.49-12.58c-10.91-6.67-19.77-15.74-26.34-26.96
					c-3.86-6.58-6.97-14.01-9.25-22.06c-2.51-8.84-4.08-18.67-4.67-29.21c-0.33-5.93-0.23-11.85,0.3-17.6l1.1-11.88L32.06,86.78z"/>
			</defs>
			<clipPath id="SVGID_2_">
				<use xlink:href="#SVGID_1_"  style="overflow:visible;"/>
			</clipPath>
			
				<linearGradient id="SVGID_3_" gradientUnits="userSpaceOnUse" x1="-3277.6533" y1="2217.4185" x2="-3277.4922" y2="2217.4185" gradientTransform="matrix(972.7227 0 0 -972.7227 3188268.5 2157084.75)">
				<stop  offset="0" style="stop-color:#2F1484"/>
				<stop  offset="0.4749" style="stop-color:#725BA9"/>
				<stop  offset="0.9682" style="stop-color:#AFA3CE"/>
				<stop  offset="1" style="stop-color:#AFA3CE"/>
			</linearGradient>
			<rect x="20.74" y="76.27" class="st0" width="156.76" height="150.93"/>
		</g>
		<g>
			<defs>
				<path id="SVGID_4_" d="M174.15,89.03c0.41,0.47,0.72,0.87,0.94,1.2C174.87,89.91,174.55,89.51,174.15,89.03 M142.9,44.35
					c3.25,4.74,6.13,9.96,8.55,15.52c2.47,5.66,4.49,11.7,5.99,17.93l0.24,0.98l0.87,0.52c4.09,2.46,7.36,4.86,9.71,7.13
					c3.39,3.28,4.46,4.62,4.8,5.13l4.43,6.64v-7.98V56.79v-1.06l-0.78-0.72c-4.49-4.11-11.46-7.89-21.33-11.54
					c-2.92-1.08-6.28-2.04-9.97-2.84l-5.95-1.29L142.9,44.35z"/>
			</defs>
			<clipPath id="SVGID_5_">
				<use xlink:href="#SVGID_4_"  style="overflow:visible;"/>
			</clipPath>
			
				<linearGradient id="SVGID_6_" gradientUnits="userSpaceOnUse" x1="-3269.8267" y1="2213.6379" x2="-3269.6655" y2="2213.6379" gradientTransform="matrix(236.041 0 0 -236.041 771952.625 522578.0938)">
				<stop  offset="0" style="stop-color:#2F1484"/>
				<stop  offset="0.4749" style="stop-color:#725BA9"/>
				<stop  offset="0.9682" style="stop-color:#AFA3CE"/>
				<stop  offset="1" style="stop-color:#AFA3CE"/>
			</linearGradient>
			<rect x="139.46" y="39.33" class="st1" width="38.04" height="58.88"/>
		</g>
		<g>
			<defs>
				<path id="SVGID_7_" d="M89.49,9.66l-4.77,6.36c-5.07,6.77-19.9,27.11-24.1,32.88c-0.59,0.81-0.29,1.95,0.67,2.33
					c92.53,37.41,87.98,120.71,87.98,120.71c2.76,0.97,3.34-4.13,3.34-4.13S167.63,63.09,92.13,9.42C91.74,9.15,91.29,9,90.85,9
					C90.33,9,89.83,9.21,89.49,9.66"/>
			</defs>
			<clipPath id="SVGID_8_">
				<use xlink:href="#SVGID_7_"  style="overflow:visible;"/>
			</clipPath>
			
				<linearGradient id="SVGID_9_" gradientUnits="userSpaceOnUse" x1="-3288.835" y1="2213.6836" x2="-3288.6738" y2="2213.6836" gradientTransform="matrix(-214.234 -236.9557 -236.9557 214.234 -179915.9688 -1253457.75)">
				<stop  offset="0" style="stop-color:#2F1484"/>
				<stop  offset="0.4749" style="stop-color:#725BA9"/>
				<stop  offset="0.9682" style="stop-color:#AFA3CE"/>
				<stop  offset="1" style="stop-color:#AFA3CE"/>
			</linearGradient>
			<polygon class="st2" points="108.43,226.44 -21.51,82.72 119.24,-44.53 249.17,99.19 			"/>
		</g>
		<g>
			<defs>
				<path id="SVGID_10_" d="M51.97,67.63c-0.82,4.68-3.13,17.7-4.34,22.05c-1.05,3.77-2.37,8.04-3.06,10.24
					c-0.26,0.82,0.21,1.74,1.11,1.92c63.16,12.62,90.42,49.97,95.43,58.23c5.01,8.26,4.08,10.67,5.01,8.26
					c0.93-2.41-19.1-86.56-92.02-101.95c-0.14-0.03-0.29-0.04-0.43-0.04C52.84,66.33,52.11,66.84,51.97,67.63"/>
			</defs>
			<clipPath id="SVGID_11_">
				<use xlink:href="#SVGID_10_"  style="overflow:visible;"/>
			</clipPath>
			
				<linearGradient id="SVGID_12_" gradientUnits="userSpaceOnUse" x1="-3276.0349" y1="2216.7979" x2="-3275.8738" y2="2216.7979" gradientTransform="matrix(630.7483 0 0 -630.7483 2066398 1398360)">
				<stop  offset="0" style="stop-color:#EB709E"/>
				<stop  offset="0.0373" style="stop-color:#EB709E"/>
				<stop  offset="0.3482" style="stop-color:#EA4C8F"/>
				<stop  offset="1" style="stop-color:#F00B5D"/>
			</linearGradient>
			<rect x="44.31" y="66.33" class="st3" width="102.73" height="104.4"/>
		</g>
		<g>
			<defs>
				<path id="SVGID_13_" d="M55.23,118.69l0,20.65c0,0.77,0.73,1.36,1.56,1.28c55.99-5.57,78.4,19.44,79.87,19.61
					c1.48,0.17-7.42-8.95-14.65-15.49c-7.23-6.54-23.56-17.73-36.72-22.54c-10.87-3.98-24.27-4.68-28.61-4.8c-0.01,0-0.03,0-0.04,0
					C55.85,117.4,55.23,117.98,55.23,118.69"/>
			</defs>
			<clipPath id="SVGID_14_">
				<use xlink:href="#SVGID_13_"  style="overflow:visible;"/>
			</clipPath>
			
				<linearGradient id="SVGID_15_" gradientUnits="userSpaceOnUse" x1="-3274.9246" y1="2216.7095" x2="-3274.7634" y2="2216.7095" gradientTransform="matrix(506.2701 0 0 -506.2701 1658051.625 1122392.625)">
				<stop  offset="0" style="stop-color:#EB709E"/>
				<stop  offset="0.0373" style="stop-color:#EB709E"/>
				<stop  offset="0.3482" style="stop-color:#EA4C8F"/>
				<stop  offset="1" style="stop-color:#F00B5D"/>
			</linearGradient>
			<rect x="55.23" y="117.4" class="st4" width="82.91" height="43.01"/>
		</g>
		<g>
			<defs>
				<path id="SVGID_16_" d="M67.29,156.1c0.16,1.82,7.98,17.68,7.98,17.68c20.48-15.52,38.11-13.71,46.51-11.9
					c3.31,0.71,5.19,1.43,5.24,1.08c0.19-1.24-14.84-9.61-30.99-10.64c-1.98-0.13-3.9-0.18-5.76-0.18
					C76.96,152.14,67.19,155.05,67.29,156.1"/>
			</defs>
			<clipPath id="SVGID_17_">
				<use xlink:href="#SVGID_16_"  style="overflow:visible;"/>
			</clipPath>
			
				<linearGradient id="SVGID_18_" gradientUnits="userSpaceOnUse" x1="-3272.8701" y1="2216.5603" x2="-3272.709" y2="2216.5603" gradientTransform="matrix(370.6115 0 0 -370.6115 1213030.375 821645.625)">
				<stop  offset="0" style="stop-color:#EB709E"/>
				<stop  offset="0.0373" style="stop-color:#EB709E"/>
				<stop  offset="0.3482" style="stop-color:#FC141B"/>
				<stop  offset="1" style="stop-color:#D81464"/>
			</linearGradient>
			<rect x="67.19" y="152.14" class="st5" width="60" height="21.64"/>
		</g>
	</g>
	<g>
		<g>
			<path class="st6" d="M233.13,204.99c-7.19,0-13.62-1.61-19.1-4.8c-5.5-3.19-9.8-7.73-12.79-13.49
				c-2.96-5.71-4.47-12.36-4.47-19.75c0-7.4,1.54-14.06,4.56-19.81c3.05-5.79,7.37-10.33,12.83-13.49
				c5.45-3.15,11.73-4.74,18.68-4.74c9.94,0,18.58,3.82,25.69,11.36l1.03,1.1l-11.49,12.41l-1.18-1.22
				c-3.84-3.96-8.31-5.88-13.68-5.88c-3.55,0-6.73,0.84-9.43,2.5c-2.7,1.66-4.83,4.03-6.31,7.05c-1.51,3.08-2.28,6.7-2.28,10.74
				c0,4.04,0.77,7.66,2.28,10.74c1.48,3.02,3.6,5.4,6.31,7.05c2.71,1.66,5.88,2.5,9.43,2.5c2.84,0,5.61-0.56,8.22-1.67
				c2.6-1.1,4.9-2.71,6.82-4.79l1.25-1.35l10.94,13.17l-1,1.04C252.23,201.17,243.37,204.99,233.13,204.99"/>
			<path class="st6" d="M315.71,203.4l-4.79-12.54h-29.58l-4.79,12.54h-19.65l30.28-72.9h18.28l30.08,72.9H315.71z M304.35,173.6
				l-8.09-21.35l-8.24,21.35H304.35z"/>
			<path class="st6" d="M378.93,203.39l-16.41-22.99h-6.31v22.99h-18.34v-72.9h33.04c4.92,0,9.31,1.06,13.04,3.14
				c3.76,2.1,6.7,5.12,8.75,8.96c2.02,3.8,3.05,8.21,3.05,13.1c0,5.61-1.38,10.5-4.1,14.54c-2.35,3.49-5.58,6.14-9.6,7.9
				l18.91,25.26H378.93z M369.17,164.04c2.8,0,4.94-0.7,6.34-2.08c1.41-1.39,2.1-3.37,2.1-6.07c0-2.69-0.7-4.69-2.15-6.12
				c-1.45-1.43-3.51-2.12-6.29-2.12h-13.04v16.39H369.17z"/>
			<polygon class="st6" points="404.6,203.39 404.6,130.49 422.94,130.49 422.94,185.44 455.38,185.44 455.38,203.39 			"/>
			<polygon class="st6" points="460.73,203.39 460.73,130.49 513.17,130.49 513.17,147.36 478.61,147.36 478.61,158.27 
				511.33,158.27 511.33,174.63 478.61,174.63 478.61,186.44 514.18,186.44 514.18,203.39 			"/>
			<path class="st6" d="M547.59,204.99c-5.44,0-10.75-0.9-15.79-2.68c-5.06-1.79-9.5-4.33-13.2-7.57l-1.06-0.93l9.61-14.53
				l1.38,1.17c5.39,4.57,11.77,6.88,18.96,6.88c3.49,0,6.25-0.62,8.23-1.85c1.78-1.1,2.6-2.47,2.6-4.3c0-1.69-0.75-2.93-2.35-3.9
				c-1.88-1.13-5.01-1.96-9.31-2.47c-9.06-1.09-15.84-3.46-20.15-7.03c-4.45-3.69-6.71-9-6.71-15.78c0-4.55,1.21-8.64,3.6-12.15
				c2.37-3.49,5.73-6.22,9.98-8.13c4.18-1.88,9.06-2.83,14.48-2.83c4.63,0,9.22,0.73,13.63,2.17c4.42,1.44,8.39,3.51,11.78,6.13
				l1.15,0.89l-8.79,14.18l-1.41-1.06c-4.73-3.55-10.02-5.35-15.71-5.35c-3.44,0-6.19,0.59-8.17,1.77
				c-1.75,1.04-2.57,2.31-2.57,3.99c0,1.63,0.68,2.8,2.14,3.7c1.73,1.07,4.79,1.9,9.09,2.46c8.99,1.1,15.84,3.58,20.37,7.38
				c4.66,3.92,7.03,9.34,7.03,16.11c0,4.69-1.24,8.89-3.69,12.5c-2.43,3.59-5.89,6.39-10.27,8.33
				C558.13,204.02,553.14,204.99,547.59,204.99"/>
		</g>
		<g>
			<path class="st7" d="M215.1,116.45c-3.94,0-7.77-0.65-11.4-1.94c-3.65-1.29-6.86-3.13-9.53-5.47l-0.79-0.7l6.98-10.56l1.04,0.88
				c3.88,3.29,8.47,4.95,13.64,4.95c2.5,0,4.49-0.45,5.91-1.33c1.26-0.79,1.85-1.76,1.85-3.07c0-1.2-0.53-2.08-1.68-2.77
				c-1.35-0.81-3.6-1.41-6.69-1.77c-6.54-0.79-11.44-2.5-14.56-5.08c-3.22-2.67-4.86-6.51-4.86-11.41c0-3.3,0.88-6.25,2.6-8.79
				c1.72-2.52,4.15-4.5,7.22-5.88c3.02-1.36,6.54-2.04,10.46-2.04c3.35,0,6.66,0.53,9.85,1.57c3.2,1.04,6.06,2.53,8.51,4.43
				l0.86,0.67l-6.39,10.3l-1.06-0.79c-3.4-2.55-7.21-3.85-11.31-3.85c-2.47,0-4.45,0.43-5.86,1.27c-1.25,0.74-1.84,1.64-1.84,2.84
				c0,1.16,0.48,1.99,1.52,2.63c1.24,0.77,3.44,1.36,6.54,1.77c6.49,0.79,11.44,2.58,14.71,5.33c3.37,2.84,5.08,6.76,5.08,11.66
				c0,3.39-0.9,6.43-2.67,9.04c-1.76,2.6-4.26,4.62-7.42,6.03C222.72,115.76,219.11,116.45,215.1,116.45"/>
			<path class="st7" d="M276.16,115.31l-3.46-9.05h-21.27l-3.46,9.05H233.7l21.88-52.67h13.25l21.74,52.67H276.16z M267.93,93.72
				l-5.77-15.22l-5.87,15.22H267.93z"/>
			<path class="st7" d="M310.09,116.45c-3.93,0-7.77-0.65-11.4-1.94c-3.65-1.29-6.86-3.13-9.53-5.47l-0.79-0.7l6.98-10.56l1.04,0.88
				c3.88,3.29,8.47,4.95,13.64,4.95c2.5,0,4.49-0.45,5.91-1.33c1.26-0.79,1.85-1.76,1.85-3.07c0-1.2-0.53-2.08-1.68-2.77
				c-1.35-0.81-3.61-1.41-6.69-1.77c-6.54-0.79-11.44-2.5-14.56-5.08C291.64,86.94,290,83.1,290,78.2c0-3.29,0.88-6.25,2.6-8.79
				c1.72-2.52,4.15-4.5,7.22-5.88c3.03-1.36,6.55-2.04,10.46-2.04c3.35,0,6.66,0.53,9.85,1.57c3.2,1.04,6.06,2.53,8.51,4.43
				l0.86,0.67l-6.39,10.3l-1.06-0.79c-3.4-2.55-7.21-3.85-11.31-3.85c-2.47,0-4.45,0.43-5.86,1.27c-1.25,0.74-1.83,1.64-1.83,2.84
				c0,1.16,0.48,1.99,1.52,2.63c1.25,0.77,3.44,1.36,6.54,1.77c6.49,0.79,11.44,2.58,14.71,5.33c3.37,2.84,5.08,6.76,5.08,11.66
				c0,3.39-0.9,6.43-2.67,9.04c-1.76,2.6-4.26,4.62-7.42,6.03C317.71,115.76,314.1,116.45,310.09,116.45"/>
		</g>
	</g>
</g>
</svg>
